{"title":"The.Gangs.Of.Oss.2011.DVDRip.XviD-EXViD","uid":6955533,"size":740469740,"categoryP":"video","categoryS":"movies","magnet":"?xt=urn:btih:6c992012b3f10beedb6473f8413ef9eb68e02564&amp;dn=The.Gangs.Of.Oss.2011.DVDRip.XviD-EXViD&amp;tr=udp%3A%2F%2Ftracker.openbittorrent.com%3A80&amp;tr=udp%3A%2F%2Fopen.demonii.com%3A1337&amp;tr=udp%3A%2F%2Ftracker.coppersurfer.tk%3A6969&amp;tr=udp%3A%2F%2Fexodus.desync.com%3A6969","seeders":0,"leechers":1,"uploader":"TvTeam","files":8,"time":1326563209,"description":". \n &lt;a href=&quot;\nhttp://www.torrenting.com&quot; rel=&quot;nofollow&quot; target=&quot;_NEW&quot;&gt;\nhttp://www.torrenting.com&lt;/a&gt;          :     Once &amp; For all ;)\n\n\n               www . Torrenting . Com \n\n(((((((((((((= Enjoy No RAR releases =))))))))))))))))))))\n\n\n...................................NFO:....................................\n\n.                                                                                                     \n       \n     \n     \n       \n       \n     \n     \n                                         \n                                         \n                EXVID                    \n                                         \n         \n                                         \n         Filled the Archives             \n                                         \n         \n                                         \n                With:                    \n                                         \n         \n                                         \n                                    \n     E240                           \n                                    \n     SP               (C) 2009      \n                                         \n     \n     \n     \n                                                                                  \n                                                                                   \n                The.Gangs.Of.Oss.2011.DVDRip.XviD-EXViD                             \n                                                                                   \n                                                                                  \n     \n                                                                                               \nEXViD aims to iNTERNAL those releases which have been lost in the archives.\nEXViD aims to PRE non-internal releases which have poor sources and are likely skipped by others. &lt;a href=&quot;\nhttp://www.imdb.com/title/tt1714193/&quot; rel=&quot;nofollow&quot; target=&quot;_NEW&quot;&gt;\nhttp://www.imdb.com/title/tt1714193/&lt;/a&gt;\nSubtitles: NL, EN, NL HI\nDate: 2012.01\n\nDirector: Andr van Duren\n\nGenres: Crime\n\nPlot:\nJohanna wants to change her life and quit the criminal gangs of the town of Oss in the 30ties\nof the 20th century. The harder she tries, the more she is involved.\n\nCast:\nMatthias Schoenaerts \t ... \t Ties van Heesch \nSylvia Hoeks \t ... \t Johanna van Heesch \nJuliette van Ardenne \t ... \t Zuster in ziekenhuis \nGuido Pollemans \t ... \t Piet van der Heijden \nDaan Schuurmans \t ... \t Wachtmeester Roelofse \nPierre Bokma \t ... \t Sal Hedeman \nFrank Lammers \t ... \t Harry den Brock \nKees Boot \t ... \t Minister Kolfschoten \nMaria Kraakman \t ... \t Trees Biemans \nBenja Bruijning \t ... \t Jan \nJuul Vrijdag \t ... \t Mien Biemans \nJaap Spijkers \t ... \t Pastoor de Roos \nDennis Overeem \t ... \t Bosma \nElle van Rijn \t ... \t Ellie \nMarcel Musters \t ... \t Wim de Kuyper\n\nStats:\nFormat                           : AVI\nFormat/Info                      : Audio Video Interleave\nFile size                        : 701 MiB\nDuration                         : 1h 47mn\nOverall bit rate                 : 916 Kbps\nWriting application              : VirtualDubMod 1.5.10.2 (build 2540/release)\nWriting library                  : VirtualDubMod build 2540/release\n\nVideo\nID                               : 0\nFormat                           : MPEG-4 Visual\nFormat profile                   : Advanced Simple@L5\nFormat settings, BVOP            : Yes\nFormat settings, QPel            : No\nFormat settings, GMC             : No warppoints\nFormat settings, Matrix          : Default (H.263)\nMuxing mode                      : Packed bitstream\nCodec ID                         : XVID\nCodec ID/Hint                    : XviD\nDuration                         : 1h 47mn\nBit rate                         : 781 Kbps\nWidth                            : 640 pixels\nHeight                           : 272 pixels\nDisplay aspect ratio             : 2.35:1\nFrame rate                       : 25.000 fps\nColor space                      : YUV\nChroma subsampling               : 4:2:0\nBit depth                        : 8 bits\nScan type                        : Progressive\nBits/(Pixel*Frame)               : 0.179\nStream size                      : 598 MiB (85%)\nWriting library                  : XviD 62\n\nAudio\nID                               : 1\nFormat                           : MPEG Audio\nFormat version                   : Version 1\nFormat profile                   : Layer 3\nMode                             : Joint stereo\nMode extension                   : MS Stereo\nCodec ID                         : 55\nCodec ID/Hint                    : MP3\nDuration                         : 1h 47mn\nBit rate mode                    : Variable\nBit rate                         : 128 Kbps\nChannel(s)                       : 2 channels\nSampling rate                    : 48.0 KHz\nStream size                      : 93.5 MiB (13%)\nAlignment                        : Aligned on interleaves\nInterleave, duration             : 24 ms (0.60 video frame)\nInterleave, preload duration     : 389 ms\nWriting library                  : LAME3.98r\nEncoding settings                : -m j -V 4 -q 2 -lowpass 17 --abr 128\n\n\n\n\nRelease notes:\nEnglish .srt subs included to fit on disc.\n\nenjoy!\n\nLooking for:\n75TB+ Archives\nDUTCH/FLEMiSH Archives\n                                                                                                    \nGreets: CRBS EPiSODE FiCO FLS iLS KLASSiGER LiPSYNC MADE NODLABS RUNNER SPRiNTER      \n   \n\n                                                                    ASCII DONE BY XX^NFO 2oo9","torrent":{"xt":"urn:btih:6c992012b3f10beedb6473f8413ef9eb68e02564","amp;dn":"The.Gangs.Of.Oss.2011.DVDRip.XviD-EXViD","amp;tr":["udp%3A%2F%2Ftracker.openbittorrent.com%3A80","udp%3A%2F%2Fopen.demonii.com%3A1337","udp%3A%2F%2Ftracker.coppersurfer.tk%3A6969","udp%3A%2F%2Fexodus.desync.com%3A6969"],"infoHash":"6c992012b3f10beedb6473f8413ef9eb68e02564","infoHashBuffer":{"type":"Buffer","data":[108,153,32,18,179,241,11,238,219,100,115,248,65,62,249,235,104,224,37,100]},"announce":[],"urlList":[]}}